# xmcd CD database file
#
# Track frame offsets:
#	150
#	15977
#	34574
#	64870
#	85118
#	98913
#	113538
#	158066
#	170099
#	187106
#	219504
#	258819
#
# Disc length: 3744 seconds
#
# Revision: 0
# Processed by: cddbd v1.5.1PL0 Copyright (c) Steve Scherf et al.
# Submitted via: CDex 1.51
#
DISCID=910e9e0c
DTITLE=Stevie Ray Vaughan - At El Mocambo
DYEAR=1900
DGENRE=Blues
TTITLE0=Testify
TTITLE1=So Excited
TTITLE2=Voodoo Chile
TTITLE3=Pride and Joy
TTITLE4=Tell Me
TTITLE5=Mary Had A Little Lamb
TTITLE6=Texas Flood
TTITLE7=Love Struck Baby
TTITLE8=Hug You Squeeze You
TTITLE9=Third Stone From The Sun
TTITLE10=Lenny
TTITLE11=Wham !
EXTD=
EXTT0=
EXTT1=
EXTT2=
EXTT3=
EXTT4=
EXTT5=
EXTT6=
EXTT7=
EXTT8=
EXTT9=
EXTT10=
EXTT11=
PLAYORDER=
